<svg width="111" height="21" viewBox="0 0 111 21" fill="none" xmlns="http://www.w3.org/2000/svg">
<path d="M88.9844 9.76637V16.5332H89.9213H90.8583V9.76637V2.99953H89.9213H88.9844V9.76637Z" fill="white"/>
<path d="M26 10.2348V16.5332H30.3204H34.6407V16.2209V15.9086H31.3094H27.978V9.92253V3.93648H26.989H26V10.2348Z" fill="white"/>
<path d="M71.1797 10.2348V16.5332H71.44H71.7002L71.721 11.1926L71.7523 5.86242L72.0333 6.53911C72.1895 6.91389 73.1577 9.29789 74.1883 11.8485L76.0622 16.4812H77.0096H77.9673L79.4144 12.8895C80.2056 10.9115 81.1738 8.52752 81.559 7.58016L82.2669 5.86242L82.2981 11.1926L82.3189 16.5332H83.2559H84.1928V10.2348V3.92607L83.2455 3.9573L82.2877 3.98853L80.0182 9.75596C78.7585 12.9312 77.7175 15.5442 77.7071 15.565C77.6863 15.5858 76.6452 12.9832 75.3855 9.78719L73.1056 3.98853L72.1375 3.9573L71.1797 3.92607V10.2348Z" fill="white"/>
<path d="M85.9504 4.23826C85.4403 4.75879 85.5652 5.49794 86.2315 5.76861C86.5334 5.89354 86.6375 5.89354 86.9394 5.76861C87.3558 5.59163 87.5224 5.33137 87.5224 4.87331C87.5224 4.42565 87.0331 3.93636 86.5854 3.93636C86.3564 3.93636 86.1586 4.03005 85.9504 4.23826Z" fill="white"/>
<path d="M35.8906 10.4444C35.8906 13.1615 35.9114 13.453 36.0988 13.9735C36.6714 15.4935 37.9311 16.3263 39.9091 16.5033C40.7419 16.5657 41.8663 16.4096 42.5325 16.1181L42.9698 15.9203V16.2326V16.5449L43.938 16.5137L44.8957 16.4825V12.0059V7.52942L43.938 7.49818L42.9906 7.46695L42.949 10.4652C42.9073 13.3281 42.8969 13.4946 42.6575 14.1193C42.189 15.3373 41.4498 15.9099 40.3567 15.9099C39.628 15.8995 39.045 15.6392 38.5661 15.0666C37.8894 14.2858 37.8374 13.9527 37.7853 10.5172L37.7437 7.47736H36.8172H35.8906V10.4444Z" fill="white"/>
<path d="M46.2565 7.60171C46.3085 7.67458 47.183 8.7781 48.2032 10.0586L50.0667 12.3697L48.4219 14.0979C47.5057 15.0556 46.6312 15.9926 46.4751 16.18L46.1836 16.5339H46.4751C46.7145 16.5443 47.0685 16.232 48.5884 14.66L50.4103 12.7757L51.9094 14.66L53.4085 16.5339H54.3246C54.8347 16.5339 55.2512 16.5027 55.2512 16.4506C55.2512 16.409 54.4079 15.3263 53.3773 14.0354C52.3466 12.7445 51.5034 11.6618 51.5034 11.6202C51.5034 11.5785 52.3466 10.6624 53.3773 9.59012C54.4079 8.50742 55.2512 7.60171 55.2512 7.54966C55.2512 7.50801 55.1158 7.47678 54.9492 7.47678C54.7306 7.47678 54.5432 7.5913 54.2517 7.91402C54.0435 8.16388 53.2419 9.00713 52.482 9.78792L51.0974 11.2142L49.6087 9.35068L48.1199 7.47678H47.1518C46.4022 7.47678 46.2044 7.50801 46.2565 7.60171Z" fill="white"/>
<path d="M56.5039 7.54961C56.5039 7.59125 57.3055 9.63172 58.2841 12.0782L60.0643 16.5339H60.6785H61.2927L61.0429 17.0336C60.7098 17.679 59.929 18.5535 59.3772 18.8763C58.6797 19.2823 58.0447 19.3968 57.3576 19.2406C57.0244 19.1677 56.7017 19.0845 56.6392 19.0636C56.5351 19.022 56.5039 19.251 56.5039 20.011V21L56.8475 20.9479C58.3049 20.7085 59.1274 20.2921 60.1059 19.2927C60.512 18.8867 61.0429 18.2204 61.2719 17.8248C61.6779 17.1377 65.457 7.91398 65.457 7.61208C65.457 7.51838 65.3633 7.47674 65.1967 7.49756C64.9468 7.52879 64.8115 7.8307 63.3228 11.516C62.4483 13.7126 61.6988 15.5345 61.6779 15.5553C61.6571 15.5865 60.9076 13.7855 60.0123 11.5681L58.3986 7.52879L57.4513 7.49756C56.9307 7.48715 56.5039 7.50797 56.5039 7.54961Z" fill="white"/>
<path d="M85.6523 12.0046V16.5332H86.5893H87.5262V12.0046V7.47605H86.5893H85.6523V12.0046Z" fill="white"/>
<path d="M95.2703 7.633C93.1465 8.09106 92.1055 9.53812 92.1055 12.0054C92.1055 14.0563 92.7822 15.3264 94.2188 16.0239C95.8637 16.8047 98.331 16.6381 99.7676 15.6491C100.361 15.2431 100.913 14.4935 101.017 13.9522L101.09 13.619H100.153H99.2263L99.0909 14.1292C98.6225 15.951 96.1135 16.5444 94.9371 15.1182C94.5311 14.6289 94.2188 13.8377 94.1355 13.0777C94.1043 12.7758 94.0522 12.4218 94.021 12.2865L93.9794 12.0575H97.5189H101.059V11.7139C101.059 10.8082 100.538 9.59018 99.8093 8.79898C98.7786 7.67464 97.0817 7.2374 95.2703 7.633ZM97.6335 8.34091C98.3726 8.73651 98.8931 9.66305 99.143 11.0372L99.2054 11.4328H96.6445H94.0835V11.1413C94.0835 10.3918 94.5832 9.18417 95.0933 8.70528C95.7596 8.07024 96.8214 7.91408 97.6335 8.34091Z" fill="white"/>
<path d="M104.703 7.6323C102.985 7.97585 102.184 8.69418 102.184 9.87056C102.194 11.1823 103.016 11.8277 105.702 12.6398C107.691 13.2436 108.461 13.7433 108.617 14.5241C108.701 14.9197 108.305 15.409 107.701 15.6484C107.129 15.8774 105.817 15.9711 105.255 15.815C104.693 15.6588 104.203 15.2528 104.162 14.8884C104.13 14.6073 104.13 14.6073 103.173 14.5761C102.298 14.5553 102.204 14.5657 102.204 14.7323C102.204 15.0862 102.85 15.7213 103.495 16.0128C105.473 16.9081 108.95 16.5437 109.846 15.3569C110.627 14.3263 110.262 12.9313 109.044 12.2233C108.805 12.088 108.066 11.7965 107.41 11.5883C104.828 10.7659 104.359 10.5264 103.985 9.87056C103.704 9.36045 103.714 9.22511 104.037 8.83992C104.526 8.25693 106.119 7.93421 107.149 8.21529C107.587 8.34022 108.243 8.9128 108.243 9.18347C108.243 9.32922 108.399 9.35004 109.232 9.35004C110.044 9.35004 110.221 9.31881 110.221 9.19388C110.221 8.94403 109.544 8.26734 109.023 8.00708C108.055 7.5282 106.098 7.35122 104.703 7.6323Z" fill="white"/>
<g clip-path="url(#clip0_10084_2691)">
<path fill-rule="evenodd" clip-rule="evenodd" d="M19.3232 19.3232C19.6191 19.6191 19.4095 20.125 18.9911 20.125H1.34469C1.08529 20.125 0.875 19.9147 0.875 19.6553V2.00893C0.875 1.59048 1.38092 1.38092 1.67681 1.67681L5.98743 5.98743C6.07552 6.07552 6.125 6.19498 6.125 6.31955V14.4053C6.125 14.6647 6.33529 14.875 6.59469 14.875H14.6804C14.805 14.875 14.9245 14.9245 15.0126 15.0126L19.3232 19.3232ZM14.875 11.9911C14.875 12.4095 15.3809 12.6191 15.6768 12.3232L19.9874 8.01257C20.0755 7.92448 20.125 7.80502 20.125 7.68045V1.34469C20.125 1.08529 19.9147 0.875 19.6553 0.875H12.8821C12.7575 0.875 12.638 0.924485 12.5499 1.01257L8.23931 5.32319C7.94342 5.61908 8.15298 6.125 8.57143 6.125H14.4053C14.6647 6.125 14.875 6.33529 14.875 6.59469V11.9911Z" fill="white"/>
</g>
<defs>
<clipPath id="clip0_10084_2691">
<rect width="21" height="21" fill="white" transform="matrix(-1 0 0 -1 21 21)"/>
</clipPath>
</defs>
</svg>
