<svg width="480" height="92" viewBox="0 0 480 92" fill="none" xmlns="http://www.w3.org/2000/svg">
<path d="M387.141 42.4896V71.9297H391.217H395.293V42.4896V13.0494H391.217H387.141V42.4896Z" fill="black"/>
<path d="M113.117 44.5277V71.9297H131.914H150.71V70.5709V69.2121H136.216H121.723V43.1689V17.1258H117.42H113.117V44.5277Z" fill="black"/>
<path d="M309.676 44.5277V71.9297H310.808H311.94L312.031 48.6946L312.167 25.5049L313.39 28.4489C314.069 30.0794 318.281 40.4514 322.765 51.5481L330.918 71.7032H335.04H339.207L345.502 56.0773C348.944 47.4717 353.157 37.0998 354.832 32.9781L357.912 25.5049L358.048 48.6946L358.139 71.9297H362.215H366.291V44.5277V17.0805L362.17 17.2163L358.003 17.3522L348.129 42.4443C342.649 56.2585 338.119 67.6269 338.074 67.7175C337.984 67.8081 333.454 56.4849 327.974 42.5801L318.055 17.3522L313.843 17.2163L309.676 17.0805V44.5277Z" fill="black"/>
<path d="M373.939 18.4393C371.72 20.7039 372.263 23.9196 375.162 25.0973C376.475 25.6408 376.928 25.6408 378.242 25.0973C380.053 24.3273 380.778 23.195 380.778 21.2021C380.778 19.2545 378.649 17.1258 376.702 17.1258C375.705 17.1258 374.845 17.5334 373.939 18.4393Z" fill="black"/>
<path d="M156.148 45.4391C156.148 57.2604 156.239 58.5286 157.054 60.7932C159.545 67.4059 165.026 71.0293 173.631 71.7993C177.255 72.0711 182.146 71.3917 185.045 70.1235L186.947 69.2629V70.6217V71.9805L191.16 71.8446L195.326 71.7087V52.2329V32.7572L191.16 32.6213L187.038 32.4854L186.857 45.5296C186.676 57.9851 186.63 58.7098 185.589 61.4273C183.55 66.7265 180.335 69.2176 175.579 69.2176C172.408 69.1723 169.872 68.04 167.789 65.5489C164.845 62.152 164.618 60.7026 164.392 45.7561L164.211 32.5307H160.179H156.148V45.4391Z" fill="black"/>
<path d="M201.243 33.0715C201.469 33.3886 205.274 38.1896 209.713 43.7606L217.82 53.8155L210.664 61.3341C206.678 65.501 202.873 69.5773 202.194 70.3926L200.926 71.9325H202.194C203.236 71.9778 204.776 70.619 211.388 63.7799L219.315 55.5819L225.837 63.7799L232.359 71.9325H236.345C238.564 71.9325 240.376 71.7966 240.376 71.5702C240.376 71.389 236.707 66.6786 232.223 61.0623C227.739 55.446 224.07 50.7356 224.07 50.5545C224.07 50.3733 227.739 46.3875 232.223 41.7224C236.707 37.012 240.376 33.0715 240.376 32.8451C240.376 32.6639 239.787 32.528 239.062 32.528C238.111 32.528 237.296 33.0263 236.027 34.4303C235.122 35.5173 231.634 39.186 228.328 42.583L222.304 48.788L215.827 40.6807L209.35 32.528H205.138C201.877 32.528 201.016 32.6639 201.243 33.0715Z" fill="black"/>
<path d="M245.828 32.8454C245.828 33.0265 249.316 41.9039 253.573 52.5476L261.318 71.9328H263.99H266.663L265.576 74.1068C264.126 76.915 260.729 80.7195 258.329 82.1236C255.294 83.89 252.531 84.3882 249.542 83.7088C248.093 83.3918 246.689 83.0295 246.417 82.9389C245.964 82.7577 245.828 83.7541 245.828 87.0605V91.3633L247.323 91.1368C253.664 90.0951 257.242 88.2834 261.499 83.9353C263.266 82.1689 265.576 79.2702 266.572 77.5491C268.338 74.5598 284.78 34.4306 284.78 33.1171C284.78 32.7095 284.372 32.5283 283.647 32.6189C282.56 32.7548 281.972 34.0683 275.495 50.1018C271.69 59.6585 268.429 67.5847 268.338 67.6753C268.248 67.8112 264.987 59.9756 261.092 50.3283L254.071 32.7548L249.95 32.6189C247.685 32.5736 245.828 32.6642 245.828 32.8454Z" fill="black"/>
<path d="M372.641 52.2274V71.9297H376.717H380.793V52.2274V32.5252H376.717H372.641V52.2274Z" fill="black"/>
<path d="M414.488 33.2083C405.248 35.2012 400.719 41.4969 400.719 52.2312C400.719 61.1538 403.663 66.6795 409.913 69.7141C417.069 73.111 427.804 72.3863 434.054 68.0836C436.636 66.3171 439.036 63.0561 439.489 60.7009L439.806 59.2515H435.73H431.699L431.11 61.4708C429.072 69.397 418.156 71.9787 413.038 65.7736C411.272 63.6449 409.913 60.2027 409.551 56.8963C409.415 55.5828 409.188 54.0429 409.053 53.4541L408.871 52.4576H424.271H439.67V50.963C439.67 47.0225 437.406 41.7233 434.235 38.2811C429.751 33.3895 422.369 31.4872 414.488 33.2083ZM424.769 36.2882C427.985 38.0093 430.249 42.0404 431.336 48.019L431.608 49.7401H420.466H409.324V48.4719C409.324 45.2108 411.498 39.9569 413.718 37.8735C416.616 35.1106 421.236 34.4312 424.769 36.2882Z" fill="black"/>
<path d="M455.523 33.2047C448.05 34.6994 444.562 37.8245 444.562 42.9426C444.608 48.6495 448.186 51.4576 459.871 54.9904C468.522 57.6174 471.874 59.7914 472.553 63.1884C472.916 64.9095 471.194 67.0382 468.568 68.0799C466.076 69.0764 460.37 69.484 457.924 68.8046C455.478 68.1252 453.349 66.3588 453.168 64.7736C453.032 63.5507 453.032 63.5507 448.865 63.4148C445.061 63.3242 444.653 63.3695 444.653 64.0942C444.653 65.6341 447.461 68.397 450.269 69.6652C458.875 73.5603 474.003 71.9751 477.898 66.8118C481.295 62.3278 479.709 56.2586 474.41 53.1787C473.369 52.5899 470.153 51.3217 467.299 50.4159C456.067 46.8378 454.029 45.796 452.398 42.9426C451.175 40.7233 451.22 40.1345 452.625 38.4586C454.753 35.9223 461.683 34.5182 466.167 35.7411C468.069 36.2846 470.923 38.7757 470.923 39.9533C470.923 40.5874 471.602 40.678 475.226 40.678C478.758 40.678 479.528 40.5421 479.528 39.9986C479.528 38.9116 476.584 35.9676 474.32 34.8352C470.107 32.7518 461.592 31.9818 455.523 33.2047Z" fill="black"/>
<path fill-rule="evenodd" clip-rule="evenodd" d="M84.0663 84.0683C85.3536 85.3556 84.4419 87.5566 82.6214 87.5566H5.84814C4.71957 87.5566 3.80469 86.6418 3.80469 85.5132V8.73996C3.80469 6.91944 6.00577 6.00772 7.29307 7.29502L26.0471 26.049C26.4303 26.4323 26.6456 26.952 26.6456 27.494V62.6723C26.6456 63.8009 27.5605 64.7157 28.689 64.7157H63.8674C64.4093 64.7157 64.9291 64.931 65.3123 65.3142L84.0663 84.0683ZM64.7138 52.1688C64.7138 53.9893 66.9149 54.901 68.2022 53.6137L86.9562 34.8597C87.3394 34.4765 87.5547 33.9567 87.5547 33.4148V5.85009C87.5547 4.72152 86.6398 3.80664 85.5112 3.80664H56.0432C55.5012 3.80664 54.9814 4.02193 54.5982 4.40515L35.8442 23.1592C34.5569 24.4465 35.4686 26.6475 37.2891 26.6475H62.6703C63.7989 26.6475 64.7138 27.5624 64.7138 28.691V52.1688Z" fill="black"/>
</svg>
